<svg width="59" height="59" viewBox="0 0 59 59" fill="none" xmlns="http://www.w3.org/2000/svg">
<path fill-rule="evenodd" clip-rule="evenodd" d="M0 29.5C0 13.2076 13.2076 0 29.5 0C45.7924 0 59 13.2076 59 29.5C59 45.7924 45.7924 59 29.5 59C13.2076 59 0 45.7924 0 29.5ZM14.75 29.8089C14.75 21.6896 21.3356 15.104 29.4549 15.104C37.5742 15.104 44.1597 21.6896 44.25 29.8089C44.25 36.3043 40.1001 41.8074 34.2362 43.7921C33.5145 43.8823 33.2439 43.4312 33.2439 43.0704V39.0107C33.2439 37.6575 32.7928 36.7554 32.2516 36.3043C35.4993 35.9435 38.9274 34.7707 38.9274 29.0872C38.9274 27.4633 38.2958 26.1101 37.3938 25.1178C37.4009 25.0894 37.4108 25.0538 37.4226 25.0114C37.5607 24.5132 37.9614 23.0674 37.2133 21.2386C37.2133 21.2386 35.9503 20.8777 33.1536 22.7722C31.9809 22.5016 30.7178 22.3211 29.4549 22.3211C28.1919 22.3211 26.9289 22.4113 25.7561 22.7722C22.9594 20.8777 21.6965 21.2386 21.6965 21.2386C20.8992 23.1876 21.4068 24.7016 21.5108 25.0117L21.5161 25.0276C20.5236 26.1101 19.9824 27.3731 19.9824 28.997C19.9824 34.6805 23.4106 35.9435 26.6583 36.3043C26.2974 36.6652 25.8464 37.2967 25.7561 38.289C24.9442 38.6499 22.8693 39.2814 21.5161 37.026C21.5161 37.026 20.7042 35.5826 19.2607 35.4924C19.2607 35.4924 17.8173 35.4924 19.1705 36.3945C19.1705 36.3945 20.1629 36.8456 20.7943 38.5597C20.7943 38.5597 21.6965 41.4465 25.7561 40.5444V43.0704C25.7561 43.4312 25.4855 43.8823 24.7638 43.7921C18.99 41.8074 14.75 36.3043 14.75 29.8089Z" fill="#9C7DF4"/>
</svg>
