<svg width="60" height="59" viewBox="0 0 60 59" fill="none" xmlns="http://www.w3.org/2000/svg">
<path d="M29.75 34.6625C26.9844 34.6625 24.5875 32.45 24.5875 29.5C24.5875 26.7344 26.8 24.3375 29.75 24.3375C32.5156 24.3375 34.9125 26.55 34.9125 29.5C34.9125 32.2656 32.5156 34.6625 29.75 34.6625Z" fill="#9C7DF4"/>
<path fill-rule="evenodd" clip-rule="evenodd" d="M36.0187 16.9625L23.4813 16.9625C22.0063 17.1469 21.2688 17.3312 20.7156 17.5156C19.9781 17.7 19.425 18.0687 18.8719 18.6219C18.4342 19.0596 18.2274 19.4972 17.9774 20.0263C17.9116 20.1657 17.8425 20.3118 17.7656 20.4656C17.7371 20.5512 17.7042 20.6412 17.6689 20.7376C17.476 21.2646 17.2125 21.9844 17.2125 23.2312L17.2125 35.7687C17.3969 37.2437 17.5812 37.9812 17.7656 38.5344C17.95 39.2719 18.3188 39.825 18.8719 40.3781C19.3096 40.8158 19.7472 41.0226 20.2763 41.2725C20.4158 41.3385 20.5617 41.4074 20.7156 41.4844C20.8012 41.5129 20.8912 41.5458 20.9876 41.5811C21.5146 41.774 22.2344 42.0375 23.4813 42.0375H36.0187C37.4937 41.8531 38.2313 41.6687 38.7844 41.4844C39.5219 41.3 40.075 40.9312 40.6281 40.3781C41.0658 39.9404 41.2726 39.5028 41.5225 38.9737C41.5885 38.8342 41.6574 38.6883 41.7344 38.5344C41.7629 38.4488 41.7958 38.3588 41.8311 38.2624C42.024 37.7354 42.2875 37.0156 42.2875 35.7687V23.2312C42.1031 21.7562 41.9188 21.0187 41.7344 20.4656C41.55 19.7281 41.1812 19.175 40.6281 18.6219C40.1904 18.1842 39.7528 17.9774 39.2237 17.7274C39.0844 17.6616 38.938 17.5925 38.7844 17.5156C38.6988 17.4871 38.6088 17.4542 38.5124 17.4189C37.9854 17.226 37.2656 16.9625 36.0187 16.9625ZM29.75 21.5719C25.325 21.5719 21.8219 25.075 21.8219 29.5C21.8219 33.925 25.325 37.4281 29.75 37.4281C34.175 37.4281 37.6781 33.925 37.6781 29.5C37.6781 25.075 34.175 21.5719 29.75 21.5719ZM39.7062 21.3875C39.7062 22.4058 38.8808 23.2312 37.8625 23.2312C36.8442 23.2312 36.0187 22.4058 36.0187 21.3875C36.0187 20.3692 36.8442 19.5437 37.8625 19.5437C38.8808 19.5437 39.7062 20.3692 39.7062 21.3875Z" fill="#9C7DF4"/>
<path fill-rule="evenodd" clip-rule="evenodd" d="M0.25 29.5C0.25 13.2076 13.4576 0 29.75 0C46.0424 0 59.25 13.2076 59.25 29.5C59.25 45.7924 46.0424 59 29.75 59C13.4576 59 0.25 45.7924 0.25 29.5ZM23.4813 14.1969L36.0187 14.1969C37.6781 14.3812 38.7844 14.5656 39.7062 14.9344C40.8125 15.4875 41.55 15.8562 42.4719 16.7781C43.3937 17.7 43.9469 18.6219 44.3156 19.5437C44.6844 20.4656 45.0531 21.5719 45.0531 23.2312V35.7687C44.8687 37.4281 44.6844 38.5344 44.3156 39.4562C43.7625 40.5625 43.3937 41.3 42.4719 42.2219C41.55 43.1437 40.6281 43.6969 39.7062 44.0656C38.7844 44.4344 37.6781 44.8031 36.0187 44.8031H23.4813C21.8219 44.6187 20.7156 44.4344 19.7938 44.0656C18.6875 43.5125 17.95 43.1437 17.0281 42.2219C16.1063 41.3 15.5531 40.3781 15.1844 39.4562C14.8156 38.5344 14.4469 37.4281 14.4469 35.7687L14.4469 23.2312C14.6312 21.5719 14.8156 20.4656 15.1844 19.5437C15.7375 18.4375 16.1063 17.7 17.0281 16.7781C17.95 15.8562 18.8719 15.3031 19.7938 14.9344C20.7156 14.5656 21.8219 14.1969 23.4813 14.1969Z" fill="#9C7DF4"/>
</svg>
