<svg width="12" height="12" viewBox="0 0 12 12" fill="none" xmlns="http://www.w3.org/2000/svg">
<g clip-path="url(#clip0_206_585)">
<path d="M5.27367 11.7457C4.02307 11.7457 2.77248 11.7457 1.52668 11.7457C0.788786 11.7457 0.300049 11.2618 0.300049 10.5287C0.300049 8.01791 0.300049 5.50714 0.300049 2.99638C0.300049 2.27286 0.788786 1.77933 1.50752 1.77933C3.00727 1.77933 4.51181 1.77933 6.01156 1.77933C6.31343 1.77933 6.50988 2.03328 6.40926 2.29681C6.35176 2.45014 6.21281 2.54597 6.03552 2.54597C5.60428 2.54597 5.17304 2.54597 4.7418 2.54597C3.6685 2.54597 2.5952 2.54597 1.52189 2.54597C1.21044 2.54597 1.06669 2.68972 1.06669 3.00117C1.06669 5.50714 1.06669 8.01312 1.06669 10.5239C1.06669 10.8401 1.21044 10.9791 1.53147 10.9791C4.03266 10.9791 6.53863 10.9791 9.03981 10.9791C9.36085 10.9791 9.4998 10.8401 9.4998 10.5191C9.4998 9.03851 9.4998 7.55792 9.4998 6.07734C9.4998 6.01505 9.4998 5.94797 9.51897 5.89047C9.57167 5.70839 9.74417 5.59339 9.93104 5.61735C10.1083 5.64131 10.2521 5.78985 10.2664 5.97192C10.2664 5.99588 10.2664 6.01984 10.2664 6.0438C10.2664 7.55313 10.2664 9.06247 10.2664 10.5718C10.2664 11.1228 9.93104 11.5684 9.41355 11.7074C9.29377 11.7409 9.16919 11.7505 9.04461 11.7505C7.78922 11.7457 6.53384 11.7457 5.27367 11.7457Z" fill="white"/>
<path d="M10.4581 1.01185C10.1275 1.01185 9.79687 1.01185 9.46626 1.01185C8.96794 1.01185 8.46962 1.01185 7.9713 1.01185C7.77005 1.01185 7.60714 0.863317 7.58797 0.671655C7.56881 0.479994 7.69339 0.307498 7.88026 0.259583C7.91859 0.25 7.95692 0.25 8.00004 0.25C9.13085 0.25 10.2617 0.25 11.3877 0.25C11.6416 0.25 11.8045 0.408121 11.8045 0.657281C11.8045 1.79288 11.8045 2.92368 11.8045 4.05927C11.8045 4.27968 11.6608 4.4426 11.4595 4.46655C11.2727 4.48572 11.0906 4.36114 11.0475 4.17427C11.0379 4.12635 11.0379 4.07365 11.0379 4.02094C11.0379 3.25429 11.0379 2.48765 11.0379 1.721C11.0379 1.67788 11.0379 1.63475 11.0379 1.56767C10.99 1.6108 10.9564 1.63955 10.9277 1.6683C9.15481 3.44116 7.38194 5.21403 5.60907 6.9869C5.48449 7.11148 5.35032 7.18815 5.16824 7.13065C4.9095 7.04919 4.81846 6.73774 4.98617 6.52692C5.01492 6.48858 5.05325 6.45504 5.08679 6.4215C6.85008 4.65821 8.60857 2.89972 10.3719 1.13643C10.4054 1.10289 10.4485 1.07894 10.4869 1.05019C10.4725 1.03581 10.4677 1.02623 10.4581 1.01185Z" fill="white"/>
</g>
<defs>
<clipPath id="clip0_206_585">
<rect width="11.5" height="11.5" fill="white" transform="translate(0.300049 0.25)"/>
</clipPath>
</defs>
</svg>
